<svg id="visual" viewBox="0 0 900 600" width="900" height="600" xmlns="http://www.w3.org/2000/svg" xmlns:xlink="http://www.w3.org/1999/xlink" version="1.1"><rect x="0" y="0" width="900" height="600" fill="#291111"></rect><path d="M0 385L45 385L45 358L90 358L90 369L135 369L135 367L180 367L180 354L225 354L225 397L270 397L270 377L315 377L315 406L360 406L360 393L405 393L405 407L450 407L450 373L495 373L495 379L540 379L540 383L585 383L585 362L630 362L630 386L675 386L675 381L720 381L720 399L765 399L765 367L810 367L810 347L855 347L855 402L900 402L900 362L900 0L900 0L855 0L855 0L810 0L810 0L765 0L765 0L720 0L720 0L675 0L675 0L630 0L630 0L585 0L585 0L540 0L540 0L495 0L495 0L450 0L450 0L405 0L405 0L360 0L360 0L315 0L315 0L270 0L270 0L225 0L225 0L180 0L180 0L135 0L135 0L90 0L90 0L45 0L45 0L0 0Z" fill="#06cfce"></path><path d="M0 358L45 358L45 347L90 347L90 356L135 356L135 340L180 340L180 324L225 324L225 355L270 355L270 341L315 341L315 336L360 336L360 331L405 331L405 343L450 343L450 337L495 337L495 339L540 339L540 319L585 319L585 359L630 359L630 362L675 362L675 315L720 315L720 338L765 338L765 333L810 333L810 312L855 312L855 344L900 344L900 346L900 0L900 0L855 0L855 0L810 0L810 0L765 0L765 0L720 0L720 0L675 0L675 0L630 0L630 0L585 0L585 0L540 0L540 0L495 0L495 0L450 0L450 0L405 0L405 0L360 0L360 0L315 0L315 0L270 0L270 0L225 0L225 0L180 0L180 0L135 0L135 0L90 0L90 0L45 0L45 0L0 0Z" fill="#00baca"></path><path d="M0 315L45 315L45 285L90 285L90 276L135 276L135 304L180 304L180 328L225 328L225 310L270 310L270 288L315 288L315 300L360 300L360 307L405 307L405 298L450 298L450 281L495 281L495 278L540 278L540 301L585 301L585 279L630 279L630 279L675 279L675 322L720 322L720 300L765 300L765 292L810 292L810 326L855 326L855 276L900 276L900 319L900 0L900 0L855 0L855 0L810 0L810 0L765 0L765 0L720 0L720 0L675 0L675 0L630 0L630 0L585 0L585 0L540 0L540 0L495 0L495 0L450 0L450 0L405 0L405 0L360 0L360 0L315 0L315 0L270 0L270 0L225 0L225 0L180 0L180 0L135 0L135 0L90 0L90 0L45 0L45 0L0 0Z" fill="#00a5c3"></path><path d="M0 254L45 254L45 251L90 251L90 267L135 267L135 269L180 269L180 271L225 271L225 284L270 284L270 261L315 261L315 258L360 258L360 275L405 275L405 252L450 252L450 250L495 250L495 248L540 248L540 274L585 274L585 267L630 267L630 260L675 260L675 277L720 277L720 256L765 256L765 253L810 253L810 252L855 252L855 277L900 277L900 252L900 0L900 0L855 0L855 0L810 0L810 0L765 0L765 0L720 0L720 0L675 0L675 0L630 0L630 0L585 0L585 0L540 0L540 0L495 0L495 0L450 0L450 0L405 0L405 0L360 0L360 0L315 0L315 0L270 0L270 0L225 0L225 0L180 0L180 0L135 0L135 0L90 0L90 0L45 0L45 0L0 0Z" fill="#0090b8"></path><path d="M0 242L45 242L45 218L90 218L90 210L135 210L135 209L180 209L180 242L225 242L225 215L270 215L270 219L315 219L315 220L360 220L360 217L405 217L405 213L450 213L450 230L495 230L495 215L540 215L540 222L585 222L585 211L630 211L630 210L675 210L675 213L720 213L720 246L765 246L765 239L810 239L810 246L855 246L855 209L900 209L900 226L900 0L900 0L855 0L855 0L810 0L810 0L765 0L765 0L720 0L720 0L675 0L675 0L630 0L630 0L585 0L585 0L540 0L540 0L495 0L495 0L450 0L450 0L405 0L405 0L360 0L360 0L315 0L315 0L270 0L270 0L225 0L225 0L180 0L180 0L135 0L135 0L90 0L90 0L45 0L45 0L0 0Z" fill="#007ba9"></path><path d="M0 204L45 204L45 198L90 198L90 179L135 179L135 182L180 182L180 184L225 184L225 200L270 200L270 198L315 198L315 181L360 181L360 208L405 208L405 195L450 195L450 182L495 182L495 202L540 202L540 191L585 191L585 174L630 174L630 183L675 183L675 203L720 203L720 175L765 175L765 197L810 197L810 181L855 181L855 176L900 176L900 199L900 0L900 0L855 0L855 0L810 0L810 0L765 0L765 0L720 0L720 0L675 0L675 0L630 0L630 0L585 0L585 0L540 0L540 0L495 0L495 0L450 0L450 0L405 0L405 0L360 0L360 0L315 0L315 0L270 0L270 0L225 0L225 0L180 0L180 0L135 0L135 0L90 0L90 0L45 0L45 0L0 0Z" fill="#0d6798"></path><path d="M0 167L45 167L45 156L90 156L90 172L135 172L135 169L180 169L180 169L225 169L225 170L270 170L270 135L315 135L315 142L360 142L360 168L405 168L405 141L450 141L450 148L495 148L495 143L540 143L540 150L585 150L585 137L630 137L630 171L675 171L675 154L720 154L720 153L765 153L765 160L810 160L810 148L855 148L855 162L900 162L900 153L900 0L900 0L855 0L855 0L810 0L810 0L765 0L765 0L720 0L720 0L675 0L675 0L630 0L630 0L585 0L585 0L540 0L540 0L495 0L495 0L450 0L450 0L405 0L405 0L360 0L360 0L315 0L315 0L270 0L270 0L225 0L225 0L180 0L180 0L135 0L135 0L90 0L90 0L45 0L45 0L0 0Z" fill="#1d5385"></path><path d="M0 126L45 126L45 103L90 103L90 114L135 114L135 102L180 102L180 110L225 110L225 106L270 106L270 116L315 116L315 122L360 122L360 118L405 118L405 117L450 117L450 121L495 121L495 105L540 105L540 124L585 124L585 118L630 118L630 110L675 110L675 124L720 124L720 103L765 103L765 122L810 122L810 122L855 122L855 125L900 125L900 118L900 0L900 0L855 0L855 0L810 0L810 0L765 0L765 0L720 0L720 0L675 0L675 0L630 0L630 0L585 0L585 0L540 0L540 0L495 0L495 0L450 0L450 0L405 0L405 0L360 0L360 0L315 0L315 0L270 0L270 0L225 0L225 0L180 0L180 0L135 0L135 0L90 0L90 0L45 0L45 0L0 0Z" fill="#243f70"></path><path d="M0 92L45 92L45 88L90 88L90 76L135 76L135 91L180 91L180 88L225 88L225 68L270 68L270 67L315 67L315 93L360 93L360 82L405 82L405 66L450 66L450 91L495 91L495 76L540 76L540 88L585 88L585 87L630 87L630 81L675 81L675 72L720 72L720 68L765 68L765 90L810 90L810 84L855 84L855 65L900 65L900 75L900 0L900 0L855 0L855 0L810 0L810 0L765 0L765 0L720 0L720 0L675 0L675 0L630 0L630 0L585 0L585 0L540 0L540 0L495 0L495 0L450 0L450 0L405 0L405 0L360 0L360 0L315 0L315 0L270 0L270 0L225 0L225 0L180 0L180 0L135 0L135 0L90 0L90 0L45 0L45 0L0 0Z" fill="#262c5a"></path><path d="M0 46L45 46L45 30L90 30L90 37L135 37L135 55L180 55L180 55L225 55L225 45L270 45L270 32L315 32L315 33L360 33L360 36L405 36L405 53L450 53L450 53L495 53L495 51L540 51L540 49L585 49L585 39L630 39L630 48L675 48L675 42L720 42L720 30L765 30L765 48L810 48L810 44L855 44L855 54L900 54L900 38L900 0L900 0L855 0L855 0L810 0L810 0L765 0L765 0L720 0L720 0L675 0L675 0L630 0L630 0L585 0L585 0L540 0L540 0L495 0L495 0L450 0L450 0L405 0L405 0L360 0L360 0L315 0L315 0L270 0L270 0L225 0L225 0L180 0L180 0L135 0L135 0L90 0L90 0L45 0L45 0L0 0Z" fill="#241a44"></path></svg>